<svg xmlns="http://www.w3.org/2000/svg" fill="none" viewBox="0 0 892 83"><g clip-path="url(#a)"><path fill="#fff" d="M350.7 65.5h15.7v15.3h-15.7V65.5ZM300.7 62c.4 3.8 1.8 6.4 4.3 8a17 17 0 0 0 9 2.2c1.2 0 2.5 0 4-.2 1.6-.2 3-.6 4.5-1.1a8 8 0 0 0 3.2-2.3c1-1 1.4-2.4 1.3-4-.1-1.7-.7-3.1-1.8-4.2-1.2-1-2.6-1.8-4.4-2.4-1.8-.7-3.8-1.3-6-1.7a285.4 285.4 0 0 1-14-3.4c-2.2-.8-4.2-1.8-6-3-1.7-1.4-3.1-3-4.2-5a16 16 0 0 1-1.5-7.4c0-3.2.7-5.8 2.2-8 1.6-2.1 3.6-3.9 6-5.2 2.3-1.3 5-2.3 7.8-2.8 3-.5 5.8-.8 8.4-.8 3 0 5.9.4 8.6 1a22 22 0 0 1 7.5 3c2.2 1.5 4.1 3.4 5.5 5.7 1.5 2.3 2.5 5 2.9 8.3h-13.5c-.6-3-2-5.2-4.3-6.2-2.2-1-4.7-1.6-7.6-1.6-.9 0-2 0-3.3.2-1.2.2-2.4.5-3.5 1-1 .3-2 1-2.7 1.7-.8.8-1.1 1.8-1.1 3.1a5 5 0 0 0 1.5 3.9c1.2 1 2.6 1.8 4.4 2.4a51 51 0 0 0 6 1.6l7 1.5a72 72 0 0 1 7 2c2.3.7 4.3 1.7 6 3a14 14 0 0 1 6 12c0 3.6-.8 6.5-2.4 9a18.6 18.6 0 0 1-6.2 5.8 27.3 27.3 0 0 1-8.4 3.3 42.7 42.7 0 0 1-19.5-.2c-3-.9-5.8-2.1-8.1-3.8a20 20 0 0 1-5.4-6.3 21 21 0 0 1-2-9h12.8ZM264 0h13v12.2h-13V0Zm0 22.3h13v58.5h-13V22.3ZM223.9 22.3h12v11.3h.3c.4-1.6 1.1-3.1 2.2-4.6a22.4 22.4 0 0 1 9.1-7.2c2-.7 3.9-1 5.8-1h3l1.9.3v12.4a32.3 32.3 0 0 0-5.6-.6 14.7 14.7 0 0 0-11.2 5.2 18.2 18.2 0 0 0-3.4 6.3c-.8 2.5-1.2 5.3-1.2 8.6v27.8h-13V22.3ZM180.3 22.3h9.7V4.8h13v17.5h11.6v9.6h-11.7v31.3c0 1.3 0 2.5.2 3.5.1 1 .4 1.8.7 2.5.5.6 1.1 1.2 2 1.5.8.4 2 .5 3.4.5h2.7c.9 0 1.8-.2 2.7-.5v10a715.2 715.2 0 0 0-8.4.7c-3.4 0-6.1-.3-8.2-1-2-.6-3.7-1.5-5-2.7-1-1.3-1.8-3-2.3-4.8-.4-1.9-.6-4-.7-6.5V32h-9.7v-9.6ZM162.8 41.9c-.5-3.6-2-6.4-4.4-8.2a13.8 13.8 0 0 0-9-2.8c-1.6 0-3.4.3-5.3 1-1.9.4-3.6 1.5-5.2 3-1.6 1.6-2.9 3.7-4 6.5-1 2.7-1.5 6.3-1.5 10.8 0 2.4.2 4.8.8 7.2.6 2.4 1.5 4.6 2.7 6.5 1.3 1.9 2.9 3.4 4.8 4.6a14 14 0 0 0 7.2 1.7c3.7 0 6.8-1.1 9.3-3.5 2.4-2.3 4-5.6 4.6-9.8h12.9a28.5 28.5 0 0 1-8.7 17.5c-4.5 4-10.6 6-18.1 6a31 31 0 0 1-12.3-2.3 27 27 0 0 1-8.8-6.3c-2.4-2.7-4.3-6-5.5-9.6a41 41 0 0 1 0-24.3c1.2-3.9 3-7.2 5.4-10 2.4-2.9 5.4-5.1 9-6.7a33.3 33.3 0 0 1 22.3-1.1 24 24 0 0 1 8 3.8 20.5 20.5 0 0 1 8.7 16h-13ZM100.6 46.4c-.2-2-.6-4-1.4-5.9-.7-1.9-1.6-3.5-3-4.8a12.8 12.8 0 0 0-4.5-3.4c-1.7-1-3.7-1.4-5.8-1.4a15.3 15.3 0 0 0-11 4.5 17 17 0 0 0-3.2 4.9 18 18 0 0 0-1.2 6.1h30ZM70.5 55c0 2.3.3 4.5.9 6.6a17 17 0 0 0 3 5.5c1.2 1.6 2.8 2.9 4.8 3.9 2 .9 4.3 1.3 7 1.3 3.8 0 6.8-.8 9-2.4 2.4-1.6 4.1-4 5.3-7.3h12.2A24.3 24.3 0 0 1 95.3 81 31 31 0 0 1 74 80a25.8 25.8 0 0 1-14.6-16 40.7 40.7 0 0 1 0-24.2c1.4-3.7 3.3-7 5.7-9.8a27 27 0 0 1 20.7-9.3c4.7 0 8.8 1 12.4 3 3.7 1.8 6.7 4.4 9.2 7.5 2.4 3.2 4.1 6.9 5.2 11 1.1 4.1 1.4 8.3.9 12.7h-43ZM0 0h65.4v12.2H39.7v68.6H25.6V12.2H0V0ZM450 16.2a9 9 0 0 0-3.3-6.2c-1.8-1.5-4.1-2.2-6.9-2.2-1.3 0-2.6.2-4 .7a9.1 9.1 0 0 0-4 2.4 13.1 13.1 0 0 0-3 5 26 26 0 0 0-.6 13.8 12.2 12.2 0 0 0 5.8 8.5c1.4.8 3.2 1.2 5.4 1.2 2.9 0 5.2-.9 7-2.7 2-1.7 3.2-4.3 3.6-7.5h10c-1 5.8-3.2 10.3-6.7 13.4-3.5 3.1-8.1 4.6-14 4.6-3.4 0-6.6-.5-9.3-1.7-2.6-1.2-4.9-2.8-6.7-4.9-1.9-2-3.3-4.5-4.3-7.3a31.4 31.4 0 0 1 0-18.6c1-3 2.3-5.5 4.2-7.7 1.8-2.2 4.1-3.9 6.8-5a25.5 25.5 0 0 1 17-.9c2.5.6 4.5 1.6 6.3 2.9a15.7 15.7 0 0 1 6.6 12.2H450ZM370.4 1.2h10.8l11.3 34.4h.2l11-34.4h10.2l-16 44.8h-11.2L370.4 1.2Z"/><path fill="#F5F55A" d="M883 39.5c-.1-2.2-.5-4-1.4-5.7a12.6 12.6 0 0 0-8.1-6.3 20.5 20.5 0 0 0-10.7-.2c-1.6.3-3 .8-4.4 1.7a9.1 9.1 0 0 0-3.3 3 8.6 8.6 0 0 0-1.2 4.8c0 1.6.4 3 1.1 4 .9 1.1 1.9 2 3 2.8a21.4 21.4 0 0 0 8 3l9.5 2.2a24.6 24.6 0 0 1 11.3 4.7 14.3 14.3 0 0 1 5.3 11.4 15 15 0 0 1-2.1 8.2c-1.4 2.2-3.3 4-5.5 5.5a23.4 23.4 0 0 1-7.5 2.9 39 39 0 0 1-8.3 1 27 27 0 0 1-16.7-5c-4.3-3.2-6.7-8.4-7.3-15.6h7.2c.3 4.8 2 8.5 5.2 11 3.2 2.4 7.2 3.6 12 3.6a26 26 0 0 0 5.3-.5c1.9-.4 3.6-1 5.2-2 1.6-.9 2.9-2 3.8-3.4 1-1.4 1.6-3.1 1.6-5.2 0-1.7-.4-3.1-1.1-4.3a8.1 8.1 0 0 0-2.8-3c-1.3-.7-2.6-1.4-4.2-2-1.5-.5-3-1-4.7-1.3l-9.1-2-6.5-2c-2-1-3.7-1.9-5.2-3a13.4 13.4 0 0 1-3.4-4.3c-.8-1.8-1.2-3.9-1.2-6.4 0-3 .6-5.4 1.9-7.6a16 16 0 0 1 5.2-5 24 24 0 0 1 7-2.9 35 35 0 0 1 7.8-.9c3 0 5.7.4 8.2 1.1a18.2 18.2 0 0 1 11.3 9.4c1.1 2.4 1.8 5.1 2 8.3H883ZM812.3 22.4h6.6v13.7h.2c1.8-4.7 4.6-8.4 8.4-11 3.8-2.5 8.4-3.7 13.7-3.5v7.2a21 21 0 0 0-15.8 5.6 22.1 22.1 0 0 0-6 15.3v31.1h-7.1V22.4ZM795.6 47.5a24.7 24.7 0 0 0-5.1-14.3 17.3 17.3 0 0 0-13.5-6.5 17.3 17.3 0 0 0-13.6 6.5 23.1 23.1 0 0 0-3.8 6.6c-1 2.5-1.5 5.1-1.8 7.7h37.8Zm-37.8 6c0 2.6.3 5.3 1 8 .8 2.8 2 5.2 3.5 7.4 1.6 2.2 3.6 4 6 5.5 2.4 1.4 5.3 2.1 8.7 2.1 5.2 0 9.3-1.3 12.3-4 2.9-2.8 5-6.4 6-11h7.2a28.3 28.3 0 0 1-8.4 15.5c-4 3.6-9.7 5.4-17 5.4-4.7 0-8.7-.8-12-2.4-3.4-1.6-6.1-3.9-8.2-6.6a30.6 30.6 0 0 1-4.8-9.9 47 47 0 0 1 0-23.2c1-3.7 2.7-7 4.8-9.9a23 23 0 0 1 8.1-7c3.4-1.8 7.4-2.7 12-2.7 4.7 0 8.7 1 12 2.8 3.3 2 6 4.4 8 7.5 2.2 3 3.7 6.5 4.6 10.5.9 4 1.3 8 1.1 12h-45ZM692.7 22.4h7.1v10h.2c1.4-3.5 3.8-6.3 7.3-8.4a21 21 0 0 1 11.4-3.3c4 0 7.5.5 10.2 1.6a16 16 0 0 1 10.2 11.5c.7 2.8 1 6 1 9.4v37.6H733V44.4a33 33 0 0 0-.7-7c-.4-2.1-1.2-4-2.4-5.6a11.5 11.5 0 0 0-4.6-3.7c-1.9-1-4.3-1.4-7.1-1.4a18 18 0 0 0-7.7 1.6c-2.2 1-4.1 2.4-5.7 4.2a20 20 0 0 0-3.6 6.3c-.9 2.4-1.3 5-1.4 8v34h-7.1V22.4ZM631.9 22.4h7.1v10h.2c1.4-3.5 3.8-6.3 7.3-8.4a21 21 0 0 1 11.4-3.3c4 0 7.5.5 10.2 1.6a15.9 15.9 0 0 1 10.2 11.5c.7 2.8 1 6 1 9.4v37.6h-7.1V44.4a33 33 0 0 0-.7-7c-.5-2.1-1.2-4-2.4-5.6a11.5 11.5 0 0 0-4.6-3.7c-1.9-1-4.3-1.4-7.1-1.4a18 18 0 0 0-7.7 1.6c-2.2 1-4.1 2.4-5.7 4.2a20 20 0 0 0-3.6 6.3c-.9 2.4-1.3 5-1.4 8v34H632V22.4ZM611.2 0h7.1v11.4h-7V0Zm0 22.4h7.1v58.4h-7V22.4ZM498.9 0h8.2l18.4 70.7h.2L545.4 0h9.6l19.8 70.7h.2L593.5 0h7.7l-22.3 80.8h-8.2L550.2 8.5h-.2l-20.4 72.3h-8.3L498.9 0Z"/></g><defs><clipPath id="a"><path fill="#fff" d="M0 0h891.9v82.4H0z"/></clipPath></defs></svg>