<svg xmlns="http://www.w3.org/2000/svg" fill="none" viewBox="0 0 758 134"><g fill="#fff" clip-path="url(#a)"><path d="M566 106.4h25.3V131h-25.4v-24.6ZM485.3 100.7c.6 6 3 10.3 7 12.8 4 2.4 8.8 3.6 14.4 3.6 2 0 4.1 0 6.6-.3 2.5-.4 4.9-1 7-1.9 2.3-.8 4-2 5.4-3.6a9 9 0 0 0 2-6.6 9.2 9.2 0 0 0-3-6.6c-1.8-1.7-4.1-3-7-4-2.9-1-6-2-9.7-2.7a460 460 0 0 1-11.2-2.4c-3.9-.8-7.6-1.9-11.3-3a38.1 38.1 0 0 1-9.7-5c-2.8-2-5-4.7-6.7-7.9a26 26 0 0 1-2.6-12c0-5.1 1.3-9.4 3.7-12.8 2.5-3.5 5.7-6.3 9.5-8.4a41 41 0 0 1 12.8-4.5c4.7-.9 9.2-1.3 13.5-1.3 4.8 0 9.5.5 13.8 1.6 4.5 1 8.5 2.6 12 5A29.9 29.9 0 0 1 545.4 63h-21.6c-1-5-3.3-8.3-7-10a27.8 27.8 0 0 0-12.2-2.6c-1.5 0-3.2.1-5.3.4-2 .2-3.8.7-5.7 1.4-1.7.6-3.1 1.6-4.3 3a6.7 6.7 0 0 0-1.9 4.9 8 8 0 0 0 2.6 6.2c1.8 1.6 4.1 3 7 4 2.9 1 6.1 1.8 9.8 2.6l11.3 2.3c3.8.9 7.5 2 11.1 3.1 3.7 1.3 7 2.9 9.7 5a22.6 22.6 0 0 1 9.7 19.5c0 5.6-1.3 10.3-3.8 14.2a30 30 0 0 1-10 9.5A44 44 0 0 1 521 132a68.8 68.8 0 0 1-31.4-.4 32.1 32.1 0 0 1-21.9-16.2 34 34 0 0 1-3.3-14.6h20.8ZM426.2.7H447v19.7h-20.8V.7Zm0 36H447V131h-20.8V36.6ZM361.4 36.6H381V55h.3c.6-2.6 1.8-5 3.5-7.5A36.2 36.2 0 0 1 399.6 36c3-1.2 6.1-1.8 9.3-1.8a42.5 42.5 0 0 1 7.8.5v20.1a52 52 0 0 0-8.9-1 23.7 23.7 0 0 0-18 8.5c-2.4 2.7-4.2 6-5.5 10-1.4 4-2 8.7-2 13.9V131h-20.9V36.6ZM291.2 36.6h15.7V8.3h20.8v28.3h18.8v15.6h-18.8v50.3c0 2.2 0 4.1.2 5.7.2 1.6.6 3 1.2 4 .8 1.1 1.8 2 3.1 2.6 1.4.4 3.2.7 5.5.7h4.4c1.5-.1 3-.4 4.4-.7v16l-6.8.7a61.2 61.2 0 0 1-20-1c-3.3-1.1-6-2.7-7.9-4.6-1.8-2-3.1-4.6-3.8-7.7-.6-3-1-6.5-1.1-10.4V52.2h-15.7V36.6ZM263 68.2a19 19 0 0 0-7.2-13.1c-3.7-3-8.6-4.6-14.4-4.6-2.7 0-5.5.5-8.6 1.5-3 .8-5.8 2.5-8.4 5a27.6 27.6 0 0 0-6.4 10.5 48.7 48.7 0 0 0-2.5 17.3c0 4 .4 7.8 1.3 11.7 1 3.9 2.4 7.4 4.3 10.4 2.1 3 4.7 5.5 7.9 7.5 3.2 1.8 7 2.7 11.5 2.7 6 0 11-1.9 15-5.6 4-3.8 6.5-9 7.4-16h20.9a45.9 45.9 0 0 1-14.1 28.4c-7.3 6.4-17 9.7-29.2 9.7a50 50 0 0 1-19.7-3.7c-5.6-2.6-10.4-6-14.3-10.2a45.5 45.5 0 0 1-8.9-15.5 66.1 66.1 0 0 1 0-39.2c2-6.3 4.9-11.6 8.8-16.1 3.9-4.7 8.7-8.2 14.4-10.8a53.7 53.7 0 0 1 36-1.8c5 1.3 9.3 3.4 13 6.2a33 33 0 0 1 14 25.7h-20.9ZM162.6 75.5c-.2-3.3-1-6.4-2.2-9.5-1-3-2.6-5.6-4.7-7.8-2-2.3-4.4-4.2-7.3-5.5-2.8-1.5-6-2.2-9.5-2.2a24.7 24.7 0 0 0-17.7 7.3c-2 2.2-3.8 4.8-5.1 7.9a29 29 0 0 0-2 9.8h48.5Zm-48.5 13.7c0 3.7.5 7.2 1.4 10.6 1.1 3.4 2.7 6.4 4.8 9 2 2.5 4.7 4.6 7.8 6.1 3.2 1.5 7 2.2 11.3 2.2 6.1 0 11-1.2 14.6-3.8 3.8-2.7 6.6-6.6 8.4-11.9h19.7a39.2 39.2 0 0 1-28 30 48.2 48.2 0 0 1-14.7 2.2 50 50 0 0 1-19.7-3.7 41.7 41.7 0 0 1-23.5-26 65.6 65.6 0 0 1 .2-39 44 44 0 0 1 23.5-26.8c5.6-2.7 12-4 19-4a41 41 0 0 1 19.9 4.7c6 3 10.9 7.1 14.8 12.3 3.9 5 6.7 11 8.4 17.7a52.2 52.2 0 0 1 1.4 20.4h-69.3ZM.5.7H106v19.7H64.5V131H41.7V20.4H.5V.7ZM741.7 45c-.7-4.5-2.5-7.9-5.5-10.1a17 17 0 0 0-11-3.5c-2 0-4.2.3-6.6 1-2.3.7-4.4 2-6.4 4-2 1.9-3.6 4.5-4.9 8a41.7 41.7 0 0 0-1 22.2c.8 3 1.9 5.6 3.4 8 1.6 2.3 3.6 4.2 6 5.7 2.4 1.4 5.4 2 8.8 2 4.7 0 8.5-1.4 11.5-4.3 3-2.8 5-6.9 5.7-12.1h16c-1.6 9.4-5.2 16.6-10.8 21.7-5.6 4.9-13 7.4-22.4 7.4a33.3 33.3 0 0 1-26-10.6c-3-3.4-5.3-7.4-6.8-12a50.6 50.6 0 0 1 0-30c1.5-4.7 3.7-8.8 6.7-12.3s6.6-6.3 11-8.2a41.1 41.1 0 0 1 27.5-1.4c3.9 1 7.2 2.6 10.1 4.7A25.3 25.3 0 0 1 757.6 45h-16ZM613.3 20.8h17.4L649 76.2h.2L667 20.8h16.4L657.5 93h-17.9l-26.3-72.2Z"/></g><defs><clipPath id="a"><path fill="#fff" d="M0 0h758v134H0z"/></clipPath></defs></svg>